<mxfile host="app.diagrams.net" agent="Mozilla/5.0 (X11; Linux x86_64; rv:139.0) Gecko/20100101 Firefox/139.0" version="27.1.5">
  <diagram name="Page-1" id="TRbzVD-sh07dbvDVVXoW">
    <mxGraphModel dx="946" dy="603" grid="1" gridSize="10" guides="1" tooltips="1" connect="1" arrows="1" fold="1" page="1" pageScale="1" pageWidth="850" pageHeight="1100" math="0" shadow="0">
      <root>
        <mxCell id="0" />
        <mxCell id="1" parent="0" />
        <mxCell id="7GcY7Lw0IcXZwgzCTy-A-3" value="" style="edgeStyle=orthogonalEdgeStyle;rounded=0;orthogonalLoop=1;jettySize=auto;html=1;endArrow=none;startFill=0;" edge="1" parent="1" source="7GcY7Lw0IcXZwgzCTy-A-1" target="7GcY7Lw0IcXZwgzCTy-A-2">
          <mxGeometry relative="1" as="geometry" />
        </mxCell>
        <mxCell id="7GcY7Lw0IcXZwgzCTy-A-7" value="" style="edgeStyle=orthogonalEdgeStyle;shape=connector;rounded=0;orthogonalLoop=1;jettySize=auto;html=1;strokeColor=default;align=center;verticalAlign=middle;fontFamily=Helvetica;fontSize=12;fontColor=default;labelBackgroundColor=default;startFill=0;endArrow=none;" edge="1" parent="1" source="7GcY7Lw0IcXZwgzCTy-A-1" target="7GcY7Lw0IcXZwgzCTy-A-6">
          <mxGeometry relative="1" as="geometry" />
        </mxCell>
        <mxCell id="7GcY7Lw0IcXZwgzCTy-A-14" value="" style="edgeStyle=orthogonalEdgeStyle;shape=connector;rounded=0;orthogonalLoop=1;jettySize=auto;html=1;strokeColor=default;align=center;verticalAlign=middle;fontFamily=Helvetica;fontSize=12;fontColor=default;labelBackgroundColor=default;startFill=0;endArrow=none;" edge="1" parent="1" source="7GcY7Lw0IcXZwgzCTy-A-1" target="7GcY7Lw0IcXZwgzCTy-A-13">
          <mxGeometry relative="1" as="geometry" />
        </mxCell>
        <mxCell id="7GcY7Lw0IcXZwgzCTy-A-27" value="" style="edgeStyle=orthogonalEdgeStyle;shape=connector;rounded=0;orthogonalLoop=1;jettySize=auto;html=1;strokeColor=default;align=center;verticalAlign=middle;fontFamily=Helvetica;fontSize=12;fontColor=default;labelBackgroundColor=default;startFill=0;endArrow=none;" edge="1" parent="1" source="7GcY7Lw0IcXZwgzCTy-A-1" target="7GcY7Lw0IcXZwgzCTy-A-26">
          <mxGeometry relative="1" as="geometry" />
        </mxCell>
        <mxCell id="7GcY7Lw0IcXZwgzCTy-A-31" value="" style="edgeStyle=orthogonalEdgeStyle;shape=connector;rounded=0;orthogonalLoop=1;jettySize=auto;html=1;strokeColor=default;align=center;verticalAlign=middle;fontFamily=Helvetica;fontSize=12;fontColor=default;labelBackgroundColor=default;startFill=0;endArrow=none;" edge="1" parent="1" source="7GcY7Lw0IcXZwgzCTy-A-1" target="7GcY7Lw0IcXZwgzCTy-A-30">
          <mxGeometry relative="1" as="geometry" />
        </mxCell>
        <mxCell id="7GcY7Lw0IcXZwgzCTy-A-34" value="" style="edgeStyle=orthogonalEdgeStyle;shape=connector;rounded=0;orthogonalLoop=1;jettySize=auto;html=1;strokeColor=default;align=center;verticalAlign=middle;fontFamily=Helvetica;fontSize=12;fontColor=default;labelBackgroundColor=default;startFill=0;endArrow=none;" edge="1" parent="1" source="7GcY7Lw0IcXZwgzCTy-A-1" target="7GcY7Lw0IcXZwgzCTy-A-33">
          <mxGeometry relative="1" as="geometry" />
        </mxCell>
        <mxCell id="7GcY7Lw0IcXZwgzCTy-A-37" value="" style="edgeStyle=orthogonalEdgeStyle;shape=connector;rounded=0;orthogonalLoop=1;jettySize=auto;html=1;strokeColor=default;align=center;verticalAlign=middle;fontFamily=Helvetica;fontSize=12;fontColor=default;labelBackgroundColor=default;startFill=0;endArrow=none;" edge="1" parent="1" source="7GcY7Lw0IcXZwgzCTy-A-1" target="7GcY7Lw0IcXZwgzCTy-A-33">
          <mxGeometry relative="1" as="geometry" />
        </mxCell>
        <mxCell id="7GcY7Lw0IcXZwgzCTy-A-52" style="edgeStyle=orthogonalEdgeStyle;shape=connector;rounded=0;orthogonalLoop=1;jettySize=auto;html=1;strokeColor=default;align=center;verticalAlign=middle;fontFamily=Helvetica;fontSize=12;fontColor=default;labelBackgroundColor=default;startFill=0;endArrow=none;" edge="1" parent="1" source="7GcY7Lw0IcXZwgzCTy-A-1" target="7GcY7Lw0IcXZwgzCTy-A-51">
          <mxGeometry relative="1" as="geometry" />
        </mxCell>
        <mxCell id="7GcY7Lw0IcXZwgzCTy-A-1" value="&lt;div&gt;Users&lt;/div&gt;" style="whiteSpace=wrap;html=1;align=center;" vertex="1" parent="1">
          <mxGeometry x="380" y="340" width="100" height="40" as="geometry" />
        </mxCell>
        <mxCell id="7GcY7Lw0IcXZwgzCTy-A-5" value="" style="edgeStyle=orthogonalEdgeStyle;rounded=0;orthogonalLoop=1;jettySize=auto;html=1;endArrow=none;startFill=1;endFill=1;startArrow=classic;" edge="1" parent="1" source="7GcY7Lw0IcXZwgzCTy-A-2" target="7GcY7Lw0IcXZwgzCTy-A-4">
          <mxGeometry relative="1" as="geometry" />
        </mxCell>
        <mxCell id="7GcY7Lw0IcXZwgzCTy-A-2" value="&lt;div&gt;Gives&lt;/div&gt;" style="rhombus;whiteSpace=wrap;html=1;" vertex="1" parent="1">
          <mxGeometry x="250" y="320" width="80" height="80" as="geometry" />
        </mxCell>
        <mxCell id="7GcY7Lw0IcXZwgzCTy-A-74" value="" style="edgeStyle=orthogonalEdgeStyle;shape=connector;rounded=0;orthogonalLoop=1;jettySize=auto;html=1;strokeColor=default;align=center;verticalAlign=middle;fontFamily=Helvetica;fontSize=12;fontColor=default;labelBackgroundColor=default;startFill=0;endArrow=none;" edge="1" parent="1" source="7GcY7Lw0IcXZwgzCTy-A-4" target="7GcY7Lw0IcXZwgzCTy-A-73">
          <mxGeometry relative="1" as="geometry" />
        </mxCell>
        <mxCell id="7GcY7Lw0IcXZwgzCTy-A-4" value="&lt;div&gt;Feedback&lt;/div&gt;" style="whiteSpace=wrap;html=1;" vertex="1" parent="1">
          <mxGeometry x="100" y="340" width="100" height="40" as="geometry" />
        </mxCell>
        <mxCell id="7GcY7Lw0IcXZwgzCTy-A-9" value="" style="edgeStyle=orthogonalEdgeStyle;shape=connector;rounded=0;orthogonalLoop=1;jettySize=auto;html=1;strokeColor=default;align=center;verticalAlign=middle;fontFamily=Helvetica;fontSize=12;fontColor=default;labelBackgroundColor=default;startFill=1;endArrow=none;startArrow=classic;" edge="1" parent="1" source="7GcY7Lw0IcXZwgzCTy-A-6" target="7GcY7Lw0IcXZwgzCTy-A-8">
          <mxGeometry relative="1" as="geometry" />
        </mxCell>
        <mxCell id="7GcY7Lw0IcXZwgzCTy-A-6" value="Writes" style="rhombus;whiteSpace=wrap;html=1;" vertex="1" parent="1">
          <mxGeometry x="390" y="230" width="80" height="80" as="geometry" />
        </mxCell>
        <mxCell id="7GcY7Lw0IcXZwgzCTy-A-18" value="" style="edgeStyle=orthogonalEdgeStyle;shape=connector;rounded=0;orthogonalLoop=1;jettySize=auto;html=1;strokeColor=default;align=center;verticalAlign=middle;fontFamily=Helvetica;fontSize=12;fontColor=default;labelBackgroundColor=default;startFill=0;endArrow=none;" edge="1" parent="1" source="7GcY7Lw0IcXZwgzCTy-A-8" target="7GcY7Lw0IcXZwgzCTy-A-17">
          <mxGeometry relative="1" as="geometry" />
        </mxCell>
        <mxCell id="7GcY7Lw0IcXZwgzCTy-A-23" value="" style="edgeStyle=orthogonalEdgeStyle;shape=connector;rounded=0;orthogonalLoop=1;jettySize=auto;html=1;strokeColor=default;align=center;verticalAlign=middle;fontFamily=Helvetica;fontSize=12;fontColor=default;labelBackgroundColor=default;startFill=0;endArrow=none;" edge="1" parent="1" source="7GcY7Lw0IcXZwgzCTy-A-8" target="7GcY7Lw0IcXZwgzCTy-A-22">
          <mxGeometry relative="1" as="geometry" />
        </mxCell>
        <mxCell id="7GcY7Lw0IcXZwgzCTy-A-72" value="" style="edgeStyle=orthogonalEdgeStyle;shape=connector;rounded=0;orthogonalLoop=1;jettySize=auto;html=1;strokeColor=default;align=center;verticalAlign=middle;fontFamily=Helvetica;fontSize=12;fontColor=default;labelBackgroundColor=default;startFill=0;endArrow=none;" edge="1" parent="1" source="7GcY7Lw0IcXZwgzCTy-A-8" target="7GcY7Lw0IcXZwgzCTy-A-71">
          <mxGeometry relative="1" as="geometry" />
        </mxCell>
        <mxCell id="7GcY7Lw0IcXZwgzCTy-A-8" value="Blogs" style="whiteSpace=wrap;html=1;" vertex="1" parent="1">
          <mxGeometry x="380" y="160" width="100" height="40" as="geometry" />
        </mxCell>
        <mxCell id="7GcY7Lw0IcXZwgzCTy-A-70" value="" style="edgeStyle=orthogonalEdgeStyle;shape=connector;rounded=0;orthogonalLoop=1;jettySize=auto;html=1;strokeColor=default;align=center;verticalAlign=middle;fontFamily=Helvetica;fontSize=12;fontColor=default;labelBackgroundColor=default;startFill=0;endArrow=none;" edge="1" parent="1" source="7GcY7Lw0IcXZwgzCTy-A-10" target="7GcY7Lw0IcXZwgzCTy-A-68">
          <mxGeometry relative="1" as="geometry" />
        </mxCell>
        <mxCell id="7GcY7Lw0IcXZwgzCTy-A-10" value="&lt;div&gt;Newsletters&lt;/div&gt;" style="whiteSpace=wrap;html=1;" vertex="1" parent="1">
          <mxGeometry x="100" y="270" width="100" height="40" as="geometry" />
        </mxCell>
        <mxCell id="7GcY7Lw0IcXZwgzCTy-A-16" value="" style="edgeStyle=orthogonalEdgeStyle;shape=connector;rounded=0;orthogonalLoop=1;jettySize=auto;html=1;strokeColor=default;align=center;verticalAlign=middle;fontFamily=Helvetica;fontSize=12;fontColor=default;labelBackgroundColor=default;startFill=0;endArrow=none;" edge="1" parent="1" source="7GcY7Lw0IcXZwgzCTy-A-13" target="7GcY7Lw0IcXZwgzCTy-A-15">
          <mxGeometry relative="1" as="geometry" />
        </mxCell>
        <mxCell id="7GcY7Lw0IcXZwgzCTy-A-13" value="Creates" style="rhombus;whiteSpace=wrap;html=1;" vertex="1" parent="1">
          <mxGeometry x="520" y="320" width="80" height="80" as="geometry" />
        </mxCell>
        <mxCell id="7GcY7Lw0IcXZwgzCTy-A-45" value="" style="edgeStyle=orthogonalEdgeStyle;shape=connector;rounded=0;orthogonalLoop=1;jettySize=auto;html=1;strokeColor=default;align=center;verticalAlign=middle;fontFamily=Helvetica;fontSize=12;fontColor=default;labelBackgroundColor=default;startFill=0;endArrow=none;" edge="1" parent="1" source="7GcY7Lw0IcXZwgzCTy-A-15" target="7GcY7Lw0IcXZwgzCTy-A-44">
          <mxGeometry relative="1" as="geometry" />
        </mxCell>
        <mxCell id="7GcY7Lw0IcXZwgzCTy-A-91" value="" style="edgeStyle=orthogonalEdgeStyle;shape=connector;rounded=0;orthogonalLoop=1;jettySize=auto;html=1;strokeColor=default;align=center;verticalAlign=middle;fontFamily=Helvetica;fontSize=12;fontColor=default;labelBackgroundColor=default;startFill=0;endArrow=none;" edge="1" parent="1" source="7GcY7Lw0IcXZwgzCTy-A-15" target="7GcY7Lw0IcXZwgzCTy-A-89">
          <mxGeometry relative="1" as="geometry" />
        </mxCell>
        <mxCell id="7GcY7Lw0IcXZwgzCTy-A-15" value="Contests" style="whiteSpace=wrap;html=1;" vertex="1" parent="1">
          <mxGeometry x="650" y="340" width="100" height="40" as="geometry" />
        </mxCell>
        <mxCell id="7GcY7Lw0IcXZwgzCTy-A-20" value="" style="edgeStyle=orthogonalEdgeStyle;shape=connector;rounded=0;orthogonalLoop=1;jettySize=auto;html=1;strokeColor=default;align=center;verticalAlign=middle;fontFamily=Helvetica;fontSize=12;fontColor=default;labelBackgroundColor=default;startFill=1;endArrow=none;startArrow=classic;" edge="1" parent="1" source="7GcY7Lw0IcXZwgzCTy-A-17" target="7GcY7Lw0IcXZwgzCTy-A-19">
          <mxGeometry relative="1" as="geometry" />
        </mxCell>
        <mxCell id="7GcY7Lw0IcXZwgzCTy-A-17" value="has" style="rhombus;whiteSpace=wrap;html=1;" vertex="1" parent="1">
          <mxGeometry x="520" y="130" width="80" height="80" as="geometry" />
        </mxCell>
        <mxCell id="7GcY7Lw0IcXZwgzCTy-A-29" style="edgeStyle=orthogonalEdgeStyle;shape=connector;rounded=0;orthogonalLoop=1;jettySize=auto;html=1;entryX=1;entryY=0.5;entryDx=0;entryDy=0;strokeColor=default;align=center;verticalAlign=middle;fontFamily=Helvetica;fontSize=12;fontColor=default;labelBackgroundColor=default;startFill=0;endArrow=classic;endFill=1;" edge="1" parent="1" source="7GcY7Lw0IcXZwgzCTy-A-19" target="7GcY7Lw0IcXZwgzCTy-A-26">
          <mxGeometry relative="1" as="geometry" />
        </mxCell>
        <mxCell id="7GcY7Lw0IcXZwgzCTy-A-19" value="Blog Comments" style="whiteSpace=wrap;html=1;" vertex="1" parent="1">
          <mxGeometry x="650" y="160" width="100" height="40" as="geometry" />
        </mxCell>
        <mxCell id="7GcY7Lw0IcXZwgzCTy-A-25" value="" style="edgeStyle=orthogonalEdgeStyle;shape=connector;rounded=0;orthogonalLoop=1;jettySize=auto;html=1;strokeColor=default;align=center;verticalAlign=middle;fontFamily=Helvetica;fontSize=12;fontColor=default;labelBackgroundColor=default;startFill=1;endArrow=none;startArrow=classic;" edge="1" parent="1" source="7GcY7Lw0IcXZwgzCTy-A-22" target="7GcY7Lw0IcXZwgzCTy-A-24">
          <mxGeometry relative="1" as="geometry" />
        </mxCell>
        <mxCell id="7GcY7Lw0IcXZwgzCTy-A-22" value="gets" style="rhombus;whiteSpace=wrap;html=1;" vertex="1" parent="1">
          <mxGeometry x="260" y="120" width="80" height="80" as="geometry" />
        </mxCell>
        <mxCell id="7GcY7Lw0IcXZwgzCTy-A-32" style="edgeStyle=orthogonalEdgeStyle;shape=connector;rounded=0;orthogonalLoop=1;jettySize=auto;html=1;entryX=0;entryY=0.5;entryDx=0;entryDy=0;strokeColor=default;align=center;verticalAlign=middle;fontFamily=Helvetica;fontSize=12;fontColor=default;labelBackgroundColor=default;startFill=0;endArrow=classic;endFill=1;" edge="1" parent="1" source="7GcY7Lw0IcXZwgzCTy-A-24" target="7GcY7Lw0IcXZwgzCTy-A-30">
          <mxGeometry relative="1" as="geometry" />
        </mxCell>
        <mxCell id="7GcY7Lw0IcXZwgzCTy-A-98" value="" style="edgeStyle=orthogonalEdgeStyle;shape=connector;rounded=0;orthogonalLoop=1;jettySize=auto;html=1;strokeColor=default;align=center;verticalAlign=middle;fontFamily=Helvetica;fontSize=12;fontColor=default;labelBackgroundColor=default;startFill=0;endArrow=none;" edge="1" parent="1" source="7GcY7Lw0IcXZwgzCTy-A-24" target="7GcY7Lw0IcXZwgzCTy-A-96">
          <mxGeometry relative="1" as="geometry" />
        </mxCell>
        <mxCell id="7GcY7Lw0IcXZwgzCTy-A-24" value="&lt;div&gt;Blog Reactions&lt;/div&gt;" style="whiteSpace=wrap;html=1;" vertex="1" parent="1">
          <mxGeometry x="100" y="160" width="100" height="40" as="geometry" />
        </mxCell>
        <mxCell id="7GcY7Lw0IcXZwgzCTy-A-26" value="Comments" style="rhombus;whiteSpace=wrap;html=1;" vertex="1" parent="1">
          <mxGeometry x="480" y="220" width="80" height="80" as="geometry" />
        </mxCell>
        <mxCell id="7GcY7Lw0IcXZwgzCTy-A-30" value="&lt;div&gt;Reacts&lt;/div&gt;" style="rhombus;whiteSpace=wrap;html=1;" vertex="1" parent="1">
          <mxGeometry x="300" y="220" width="80" height="80" as="geometry" />
        </mxCell>
        <mxCell id="7GcY7Lw0IcXZwgzCTy-A-36" value="" style="edgeStyle=orthogonalEdgeStyle;shape=connector;rounded=0;orthogonalLoop=1;jettySize=auto;html=1;strokeColor=default;align=center;verticalAlign=middle;fontFamily=Helvetica;fontSize=12;fontColor=default;labelBackgroundColor=default;startFill=1;endArrow=none;startArrow=classic;" edge="1" parent="1" source="7GcY7Lw0IcXZwgzCTy-A-33" target="7GcY7Lw0IcXZwgzCTy-A-35">
          <mxGeometry relative="1" as="geometry" />
        </mxCell>
        <mxCell id="7GcY7Lw0IcXZwgzCTy-A-33" value="Registers" style="rhombus;whiteSpace=wrap;html=1;" vertex="1" parent="1">
          <mxGeometry x="290" y="410" width="80" height="80" as="geometry" />
        </mxCell>
        <mxCell id="7GcY7Lw0IcXZwgzCTy-A-93" value="" style="edgeStyle=orthogonalEdgeStyle;shape=connector;rounded=0;orthogonalLoop=1;jettySize=auto;html=1;strokeColor=default;align=center;verticalAlign=middle;fontFamily=Helvetica;fontSize=12;fontColor=default;labelBackgroundColor=default;startFill=0;endArrow=none;" edge="1" parent="1" source="7GcY7Lw0IcXZwgzCTy-A-35" target="7GcY7Lw0IcXZwgzCTy-A-92">
          <mxGeometry relative="1" as="geometry" />
        </mxCell>
        <mxCell id="7GcY7Lw0IcXZwgzCTy-A-35" value="Content_registration" style="whiteSpace=wrap;html=1;" vertex="1" parent="1">
          <mxGeometry x="100" y="440" width="120" height="40" as="geometry" />
        </mxCell>
        <mxCell id="7GcY7Lw0IcXZwgzCTy-A-41" style="edgeStyle=orthogonalEdgeStyle;shape=connector;rounded=0;orthogonalLoop=1;jettySize=auto;html=1;entryX=0.5;entryY=1;entryDx=0;entryDy=0;strokeColor=default;align=center;verticalAlign=middle;fontFamily=Helvetica;fontSize=12;fontColor=default;labelBackgroundColor=default;startFill=0;endArrow=none;" edge="1" parent="1" source="7GcY7Lw0IcXZwgzCTy-A-39" target="7GcY7Lw0IcXZwgzCTy-A-1">
          <mxGeometry relative="1" as="geometry" />
        </mxCell>
        <mxCell id="7GcY7Lw0IcXZwgzCTy-A-43" value="" style="edgeStyle=orthogonalEdgeStyle;shape=connector;rounded=0;orthogonalLoop=1;jettySize=auto;html=1;strokeColor=default;align=center;verticalAlign=middle;fontFamily=Helvetica;fontSize=12;fontColor=default;labelBackgroundColor=default;startFill=1;endArrow=none;startArrow=classic;" edge="1" parent="1" source="7GcY7Lw0IcXZwgzCTy-A-39" target="7GcY7Lw0IcXZwgzCTy-A-42">
          <mxGeometry relative="1" as="geometry" />
        </mxCell>
        <mxCell id="7GcY7Lw0IcXZwgzCTy-A-39" value="&lt;div&gt;Submits&lt;/div&gt;" style="rhombus;whiteSpace=wrap;html=1;" vertex="1" parent="1">
          <mxGeometry x="390" y="420" width="80" height="80" as="geometry" />
        </mxCell>
        <mxCell id="7GcY7Lw0IcXZwgzCTy-A-49" value="" style="edgeStyle=orthogonalEdgeStyle;shape=connector;rounded=0;orthogonalLoop=1;jettySize=auto;html=1;strokeColor=default;align=center;verticalAlign=middle;fontFamily=Helvetica;fontSize=12;fontColor=default;labelBackgroundColor=default;startFill=0;endArrow=classic;endFill=1;" edge="1" parent="1" source="7GcY7Lw0IcXZwgzCTy-A-42" target="7GcY7Lw0IcXZwgzCTy-A-48">
          <mxGeometry relative="1" as="geometry" />
        </mxCell>
        <mxCell id="7GcY7Lw0IcXZwgzCTy-A-79" style="edgeStyle=orthogonalEdgeStyle;shape=connector;rounded=0;orthogonalLoop=1;jettySize=auto;html=1;entryX=0.5;entryY=0;entryDx=0;entryDy=0;strokeColor=default;align=center;verticalAlign=middle;fontFamily=Helvetica;fontSize=12;fontColor=default;labelBackgroundColor=default;startFill=0;endArrow=none;" edge="1" parent="1" source="7GcY7Lw0IcXZwgzCTy-A-42" target="7GcY7Lw0IcXZwgzCTy-A-77">
          <mxGeometry relative="1" as="geometry" />
        </mxCell>
        <mxCell id="7GcY7Lw0IcXZwgzCTy-A-42" value="Submissions" style="whiteSpace=wrap;html=1;" vertex="1" parent="1">
          <mxGeometry x="520" y="440" width="100" height="40" as="geometry" />
        </mxCell>
        <mxCell id="7GcY7Lw0IcXZwgzCTy-A-47" value="" style="edgeStyle=orthogonalEdgeStyle;shape=connector;rounded=0;orthogonalLoop=1;jettySize=auto;html=1;strokeColor=default;align=center;verticalAlign=middle;fontFamily=Helvetica;fontSize=12;fontColor=default;labelBackgroundColor=default;startFill=0;endArrow=none;" edge="1" parent="1" source="7GcY7Lw0IcXZwgzCTy-A-44" target="7GcY7Lw0IcXZwgzCTy-A-46">
          <mxGeometry relative="1" as="geometry" />
        </mxCell>
        <mxCell id="7GcY7Lw0IcXZwgzCTy-A-44" value="&lt;div&gt;Contains&lt;/div&gt;" style="rhombus;whiteSpace=wrap;html=1;" vertex="1" parent="1">
          <mxGeometry x="660" y="400" width="80" height="80" as="geometry" />
        </mxCell>
        <mxCell id="7GcY7Lw0IcXZwgzCTy-A-55" style="edgeStyle=orthogonalEdgeStyle;shape=connector;rounded=0;orthogonalLoop=1;jettySize=auto;html=1;entryX=1;entryY=0.5;entryDx=0;entryDy=0;strokeColor=default;align=center;verticalAlign=middle;fontFamily=Helvetica;fontSize=12;fontColor=default;labelBackgroundColor=default;startFill=0;endArrow=none;" edge="1" parent="1" source="7GcY7Lw0IcXZwgzCTy-A-46" target="7GcY7Lw0IcXZwgzCTy-A-51">
          <mxGeometry relative="1" as="geometry" />
        </mxCell>
        <mxCell id="7GcY7Lw0IcXZwgzCTy-A-61" value="" style="edgeStyle=orthogonalEdgeStyle;shape=connector;rounded=0;orthogonalLoop=1;jettySize=auto;html=1;strokeColor=default;align=center;verticalAlign=middle;fontFamily=Helvetica;fontSize=12;fontColor=default;labelBackgroundColor=default;startFill=0;endArrow=none;" edge="1" parent="1" source="7GcY7Lw0IcXZwgzCTy-A-46" target="7GcY7Lw0IcXZwgzCTy-A-60">
          <mxGeometry relative="1" as="geometry" />
        </mxCell>
        <mxCell id="7GcY7Lw0IcXZwgzCTy-A-46" value="&lt;div&gt;Problems&lt;/div&gt;" style="whiteSpace=wrap;html=1;" vertex="1" parent="1">
          <mxGeometry x="590" y="620" width="100" height="40" as="geometry" />
        </mxCell>
        <mxCell id="7GcY7Lw0IcXZwgzCTy-A-50" style="edgeStyle=orthogonalEdgeStyle;shape=connector;rounded=0;orthogonalLoop=1;jettySize=auto;html=1;entryX=0;entryY=0.5;entryDx=0;entryDy=0;strokeColor=default;align=center;verticalAlign=middle;fontFamily=Helvetica;fontSize=12;fontColor=default;labelBackgroundColor=default;startFill=0;endArrow=none;" edge="1" parent="1" source="7GcY7Lw0IcXZwgzCTy-A-48" target="7GcY7Lw0IcXZwgzCTy-A-46">
          <mxGeometry relative="1" as="geometry" />
        </mxCell>
        <mxCell id="7GcY7Lw0IcXZwgzCTy-A-48" value="accepts" style="rhombus;whiteSpace=wrap;html=1;" vertex="1" parent="1">
          <mxGeometry x="510" y="500" width="80" height="80" as="geometry" />
        </mxCell>
        <mxCell id="7GcY7Lw0IcXZwgzCTy-A-51" value="Score" style="rhombus;whiteSpace=wrap;html=1;" vertex="1" parent="1">
          <mxGeometry x="270" y="500" width="80" height="80" as="geometry" />
        </mxCell>
        <mxCell id="7GcY7Lw0IcXZwgzCTy-A-54" style="edgeStyle=orthogonalEdgeStyle;shape=connector;rounded=0;orthogonalLoop=1;jettySize=auto;html=1;entryX=0.5;entryY=1;entryDx=0;entryDy=0;strokeColor=default;align=center;verticalAlign=middle;fontFamily=Helvetica;fontSize=12;fontColor=default;labelBackgroundColor=default;startFill=0;endArrow=block;endFill=1;" edge="1" parent="1" source="7GcY7Lw0IcXZwgzCTy-A-53" target="7GcY7Lw0IcXZwgzCTy-A-51">
          <mxGeometry relative="1" as="geometry" />
        </mxCell>
        <mxCell id="7GcY7Lw0IcXZwgzCTy-A-85" value="" style="edgeStyle=orthogonalEdgeStyle;shape=connector;rounded=0;orthogonalLoop=1;jettySize=auto;html=1;strokeColor=default;align=center;verticalAlign=middle;fontFamily=Helvetica;fontSize=12;fontColor=default;labelBackgroundColor=default;startFill=0;endArrow=none;" edge="1" parent="1" source="7GcY7Lw0IcXZwgzCTy-A-53" target="7GcY7Lw0IcXZwgzCTy-A-84">
          <mxGeometry relative="1" as="geometry" />
        </mxCell>
        <mxCell id="7GcY7Lw0IcXZwgzCTy-A-53" value="&lt;div&gt;User_scores&lt;/div&gt;" style="whiteSpace=wrap;html=1;" vertex="1" parent="1">
          <mxGeometry x="260" y="620" width="100" height="40" as="geometry" />
        </mxCell>
        <mxCell id="7GcY7Lw0IcXZwgzCTy-A-58" style="edgeStyle=orthogonalEdgeStyle;shape=connector;rounded=0;orthogonalLoop=1;jettySize=auto;html=1;entryX=0.5;entryY=1;entryDx=0;entryDy=0;strokeColor=default;align=center;verticalAlign=middle;fontFamily=Helvetica;fontSize=12;fontColor=default;labelBackgroundColor=default;startFill=0;endArrow=classic;endFill=1;" edge="1" parent="1" source="7GcY7Lw0IcXZwgzCTy-A-57" target="7GcY7Lw0IcXZwgzCTy-A-44">
          <mxGeometry relative="1" as="geometry" />
        </mxCell>
        <mxCell id="7GcY7Lw0IcXZwgzCTy-A-59" style="edgeStyle=orthogonalEdgeStyle;shape=connector;rounded=0;orthogonalLoop=1;jettySize=auto;html=1;entryX=0.5;entryY=0;entryDx=0;entryDy=0;strokeColor=default;align=center;verticalAlign=middle;fontFamily=Helvetica;fontSize=12;fontColor=default;labelBackgroundColor=default;startFill=1;endArrow=none;startArrow=block;" edge="1" parent="1" source="7GcY7Lw0IcXZwgzCTy-A-57" target="7GcY7Lw0IcXZwgzCTy-A-53">
          <mxGeometry relative="1" as="geometry" />
        </mxCell>
        <mxCell id="7GcY7Lw0IcXZwgzCTy-A-57" value="Results" style="rhombus;whiteSpace=wrap;html=1;" vertex="1" parent="1">
          <mxGeometry x="380" y="560" width="80" height="80" as="geometry" />
        </mxCell>
        <mxCell id="7GcY7Lw0IcXZwgzCTy-A-63" value="" style="edgeStyle=orthogonalEdgeStyle;shape=connector;rounded=0;orthogonalLoop=1;jettySize=auto;html=1;strokeColor=default;align=center;verticalAlign=middle;fontFamily=Helvetica;fontSize=12;fontColor=default;labelBackgroundColor=default;startFill=1;endArrow=none;startArrow=block;" edge="1" parent="1" source="7GcY7Lw0IcXZwgzCTy-A-60" target="7GcY7Lw0IcXZwgzCTy-A-62">
          <mxGeometry relative="1" as="geometry" />
        </mxCell>
        <mxCell id="7GcY7Lw0IcXZwgzCTy-A-60" value="has" style="rhombus;whiteSpace=wrap;html=1;" vertex="1" parent="1">
          <mxGeometry x="600" y="670" width="80" height="80" as="geometry" />
        </mxCell>
        <mxCell id="7GcY7Lw0IcXZwgzCTy-A-76" value="" style="edgeStyle=orthogonalEdgeStyle;shape=connector;rounded=0;orthogonalLoop=1;jettySize=auto;html=1;strokeColor=default;align=center;verticalAlign=middle;fontFamily=Helvetica;fontSize=12;fontColor=default;labelBackgroundColor=default;startFill=0;endArrow=none;" edge="1" parent="1" source="7GcY7Lw0IcXZwgzCTy-A-62" target="7GcY7Lw0IcXZwgzCTy-A-75">
          <mxGeometry relative="1" as="geometry" />
        </mxCell>
        <mxCell id="7GcY7Lw0IcXZwgzCTy-A-62" value="Test_cases" style="whiteSpace=wrap;html=1;" vertex="1" parent="1">
          <mxGeometry x="430" y="690" width="100" height="40" as="geometry" />
        </mxCell>
        <mxCell id="7GcY7Lw0IcXZwgzCTy-A-67" style="edgeStyle=orthogonalEdgeStyle;shape=connector;rounded=0;orthogonalLoop=1;jettySize=auto;html=1;entryX=1;entryY=0.5;entryDx=0;entryDy=0;strokeColor=default;align=center;verticalAlign=middle;fontFamily=Helvetica;fontSize=12;fontColor=default;labelBackgroundColor=default;startFill=0;endArrow=none;" edge="1" parent="1" source="7GcY7Lw0IcXZwgzCTy-A-64" target="7GcY7Lw0IcXZwgzCTy-A-1">
          <mxGeometry relative="1" as="geometry" />
        </mxCell>
        <mxCell id="7GcY7Lw0IcXZwgzCTy-A-64" value="&lt;u&gt;ID&lt;/u&gt;" style="ellipse;whiteSpace=wrap;html=1;align=center;strokeColor=default;verticalAlign=middle;fontFamily=Helvetica;fontSize=12;fontColor=default;fillColor=default;" vertex="1" parent="1">
          <mxGeometry x="440" y="390" width="100" height="40" as="geometry" />
        </mxCell>
        <mxCell id="7GcY7Lw0IcXZwgzCTy-A-68" value="&lt;u&gt;ID&lt;/u&gt;" style="ellipse;whiteSpace=wrap;html=1;align=center;strokeColor=default;verticalAlign=middle;fontFamily=Helvetica;fontSize=12;fontColor=default;fillColor=default;" vertex="1" parent="1">
          <mxGeometry x="100" y="220" width="100" height="40" as="geometry" />
        </mxCell>
        <mxCell id="7GcY7Lw0IcXZwgzCTy-A-71" value="&lt;u&gt;ID&lt;/u&gt;" style="ellipse;whiteSpace=wrap;html=1;align=center;strokeColor=default;verticalAlign=middle;fontFamily=Helvetica;fontSize=12;fontColor=default;fillColor=default;" vertex="1" parent="1">
          <mxGeometry x="380" y="110" width="100" height="40" as="geometry" />
        </mxCell>
        <mxCell id="7GcY7Lw0IcXZwgzCTy-A-73" value="&lt;u&gt;ID&lt;/u&gt;" style="ellipse;whiteSpace=wrap;html=1;align=center;strokeColor=default;verticalAlign=middle;fontFamily=Helvetica;fontSize=12;fontColor=default;fillColor=default;" vertex="1" parent="1">
          <mxGeometry x="100" y="390" width="100" height="40" as="geometry" />
        </mxCell>
        <mxCell id="7GcY7Lw0IcXZwgzCTy-A-75" value="&lt;u&gt;ID&lt;/u&gt;" style="ellipse;whiteSpace=wrap;html=1;align=center;strokeColor=default;verticalAlign=middle;fontFamily=Helvetica;fontSize=12;fontColor=default;fillColor=default;" vertex="1" parent="1">
          <mxGeometry x="310" y="690" width="100" height="40" as="geometry" />
        </mxCell>
        <mxCell id="7GcY7Lw0IcXZwgzCTy-A-77" value="&lt;u&gt;ID&lt;/u&gt;" style="ellipse;whiteSpace=wrap;html=1;align=center;strokeColor=default;verticalAlign=middle;fontFamily=Helvetica;fontSize=12;fontColor=default;fillColor=default;" vertex="1" parent="1">
          <mxGeometry x="590" y="490" width="100" height="40" as="geometry" />
        </mxCell>
        <mxCell id="7GcY7Lw0IcXZwgzCTy-A-81" style="edgeStyle=orthogonalEdgeStyle;shape=connector;rounded=0;orthogonalLoop=1;jettySize=auto;html=1;entryX=1;entryY=0.5;entryDx=0;entryDy=0;strokeColor=default;align=center;verticalAlign=middle;fontFamily=Helvetica;fontSize=12;fontColor=default;labelBackgroundColor=default;startFill=0;endArrow=none;" edge="1" parent="1" source="7GcY7Lw0IcXZwgzCTy-A-80" target="7GcY7Lw0IcXZwgzCTy-A-46">
          <mxGeometry relative="1" as="geometry" />
        </mxCell>
        <mxCell id="7GcY7Lw0IcXZwgzCTy-A-80" value="&lt;u&gt;ID&lt;/u&gt;" style="ellipse;whiteSpace=wrap;html=1;align=center;strokeColor=default;verticalAlign=middle;fontFamily=Helvetica;fontSize=12;fontColor=default;fillColor=default;" vertex="1" parent="1">
          <mxGeometry x="660" y="730" width="100" height="40" as="geometry" />
        </mxCell>
        <mxCell id="7GcY7Lw0IcXZwgzCTy-A-88" style="edgeStyle=orthogonalEdgeStyle;shape=connector;rounded=0;orthogonalLoop=1;jettySize=auto;html=1;strokeColor=default;align=center;verticalAlign=middle;fontFamily=Helvetica;fontSize=12;fontColor=default;labelBackgroundColor=default;startFill=0;endArrow=none;" edge="1" parent="1" source="7GcY7Lw0IcXZwgzCTy-A-82">
          <mxGeometry relative="1" as="geometry">
            <mxPoint x="240" y="640" as="targetPoint" />
          </mxGeometry>
        </mxCell>
        <mxCell id="7GcY7Lw0IcXZwgzCTy-A-82" value="&lt;u&gt;user_ID&lt;/u&gt;" style="ellipse;whiteSpace=wrap;html=1;align=center;strokeColor=default;verticalAlign=middle;fontFamily=Helvetica;fontSize=12;fontColor=default;fillColor=default;" vertex="1" parent="1">
          <mxGeometry x="120" y="580" width="100" height="40" as="geometry" />
        </mxCell>
        <mxCell id="7GcY7Lw0IcXZwgzCTy-A-87" value="" style="edgeStyle=orthogonalEdgeStyle;shape=connector;rounded=0;orthogonalLoop=1;jettySize=auto;html=1;strokeColor=default;align=center;verticalAlign=middle;fontFamily=Helvetica;fontSize=12;fontColor=default;labelBackgroundColor=default;startFill=0;endArrow=none;" edge="1" parent="1" source="7GcY7Lw0IcXZwgzCTy-A-83" target="7GcY7Lw0IcXZwgzCTy-A-53">
          <mxGeometry relative="1" as="geometry" />
        </mxCell>
        <mxCell id="7GcY7Lw0IcXZwgzCTy-A-83" value="&lt;div&gt;&lt;u&gt;contest_ID&lt;/u&gt;&lt;/div&gt;" style="ellipse;whiteSpace=wrap;html=1;align=center;strokeColor=default;verticalAlign=middle;fontFamily=Helvetica;fontSize=12;fontColor=default;fillColor=default;" vertex="1" parent="1">
          <mxGeometry x="50" y="620" width="100" height="40" as="geometry" />
        </mxCell>
        <mxCell id="7GcY7Lw0IcXZwgzCTy-A-84" value="&lt;u&gt;problem_ID&lt;/u&gt;" style="ellipse;whiteSpace=wrap;html=1;align=center;strokeColor=default;verticalAlign=middle;fontFamily=Helvetica;fontSize=12;fontColor=default;fillColor=default;" vertex="1" parent="1">
          <mxGeometry x="120" y="670" width="100" height="40" as="geometry" />
        </mxCell>
        <mxCell id="7GcY7Lw0IcXZwgzCTy-A-89" value="&lt;u&gt;ID&lt;/u&gt;" style="ellipse;whiteSpace=wrap;html=1;align=center;strokeColor=default;verticalAlign=middle;fontFamily=Helvetica;fontSize=12;fontColor=default;fillColor=default;" vertex="1" parent="1">
          <mxGeometry x="650" y="290" width="100" height="40" as="geometry" />
        </mxCell>
        <mxCell id="7GcY7Lw0IcXZwgzCTy-A-92" value="&lt;u&gt;user_ID&lt;/u&gt;" style="ellipse;whiteSpace=wrap;html=1;align=center;strokeColor=default;verticalAlign=middle;fontFamily=Helvetica;fontSize=12;fontColor=default;fillColor=default;" vertex="1" parent="1">
          <mxGeometry x="140" y="510" width="100" height="40" as="geometry" />
        </mxCell>
        <mxCell id="7GcY7Lw0IcXZwgzCTy-A-95" style="edgeStyle=orthogonalEdgeStyle;shape=connector;rounded=0;orthogonalLoop=1;jettySize=auto;html=1;entryX=0;entryY=0.5;entryDx=0;entryDy=0;strokeColor=default;align=center;verticalAlign=middle;fontFamily=Helvetica;fontSize=12;fontColor=default;labelBackgroundColor=default;startFill=0;endArrow=none;" edge="1" parent="1" source="7GcY7Lw0IcXZwgzCTy-A-94" target="7GcY7Lw0IcXZwgzCTy-A-35">
          <mxGeometry relative="1" as="geometry" />
        </mxCell>
        <mxCell id="7GcY7Lw0IcXZwgzCTy-A-94" value="&lt;div&gt;&lt;u&gt;contest_ID&lt;/u&gt;&lt;/div&gt;" style="ellipse;whiteSpace=wrap;html=1;align=center;strokeColor=default;verticalAlign=middle;fontFamily=Helvetica;fontSize=12;fontColor=default;fillColor=default;" vertex="1" parent="1">
          <mxGeometry x="50" y="530" width="100" height="40" as="geometry" />
        </mxCell>
        <mxCell id="7GcY7Lw0IcXZwgzCTy-A-96" value="&lt;u&gt;user_ID&lt;/u&gt;" style="ellipse;whiteSpace=wrap;html=1;align=center;strokeColor=default;verticalAlign=middle;fontFamily=Helvetica;fontSize=12;fontColor=default;fillColor=default;" vertex="1" parent="1">
          <mxGeometry x="70" y="90" width="100" height="40" as="geometry" />
        </mxCell>
        <mxCell id="7GcY7Lw0IcXZwgzCTy-A-100" style="edgeStyle=orthogonalEdgeStyle;shape=connector;rounded=0;orthogonalLoop=1;jettySize=auto;html=1;entryX=0.5;entryY=0;entryDx=0;entryDy=0;strokeColor=default;align=center;verticalAlign=middle;fontFamily=Helvetica;fontSize=12;fontColor=default;labelBackgroundColor=default;startFill=0;endArrow=none;" edge="1" parent="1" source="7GcY7Lw0IcXZwgzCTy-A-99" target="7GcY7Lw0IcXZwgzCTy-A-24">
          <mxGeometry relative="1" as="geometry" />
        </mxCell>
        <mxCell id="7GcY7Lw0IcXZwgzCTy-A-99" value="&lt;u&gt;blog_ID&lt;/u&gt;" style="ellipse;whiteSpace=wrap;html=1;align=center;strokeColor=default;verticalAlign=middle;fontFamily=Helvetica;fontSize=12;fontColor=default;fillColor=default;" vertex="1" parent="1">
          <mxGeometry x="180" y="90" width="100" height="40" as="geometry" />
        </mxCell>
      </root>
    </mxGraphModel>
  </diagram>
</mxfile>
